<?xml version="1.0" encoding="UTF-8"?>
<svg xmlns="http://www.w3.org/2000/svg" xmlns:xlink="http://www.w3.org/1999/xlink" fill="none" height="701" viewBox="0 0 701 701" width="701">
  <clipPath id="a">
    <path d="m0 0h565.685v565.685h-565.685z" transform="matrix(.70710678 -.70710678 .70710678 .70710678 .578613 400.868)"></path>
  </clipPath>
  <g clip-path="url(#a)">
    <path d="m429.86 118.118c-8.08-7.147-18.494-11.092-29.281-11.092s-21.202 3.945-29.282 11.092c-21.718 19.312-72.234 73.547-72.25 160.5l-.031 11.312-88.5 88.5c-4.119 4.092-7.384 8.962-9.605 14.327s-3.354 11.117-3.332 16.923l-.032 107.313c-.001 8.216 2.287 16.269 6.608 23.257 4.322 6.987 10.506 12.631 17.857 16.299 7.352 3.668 15.58 5.214 23.762 4.464 8.181-.75 15.992-3.765 22.555-8.708l66.125-49.937h132.25l66.203 49.984c6.551 4.972 14.367 8.005 22.557 8.754 8.191.748 16.427-.818 23.771-4.519 4.265-2.159 8.154-4.993 11.516-8.391 4.092-4.098 7.335-8.964 9.542-14.319 2.207-5.354 3.334-11.092 3.317-16.884l-.016-107.328c.015-5.805-1.122-11.554-3.346-16.916-2.223-5.361-5.489-10.228-9.607-14.319l-88.5-88.5.016-11.234c-.063-87.031-50.61-141.297-72.297-160.578zm-179.281 295.25 48.437-48.438.047 97.704-48.484 36.609zm101.515-134.734c-.088-21.487 4.16-42.77 12.491-62.576s20.573-37.727 35.994-52.69c15.434 14.959 27.685 32.883 36.017 52.697 8.332 19.813 12.572 41.106 12.467 62.6l-.047 170.64h-96.875zm198.485 134.734v85.906l-48.485-36.609.047-97.735zm-78.125 146.875c4.906 32.125-.297 81.547-53.125 134.375-4.973 4.973-11.718 7.766-18.75 7.766-7.033 0-13.778-2.793-18.75-7.766-52.875-52.875-58.125-102.25-53.125-134.375.314-3.614 1.366-7.125 3.091-10.316s4.087-5.994 6.938-8.236c2.852-2.242 6.134-3.875 9.642-4.797 3.508-.923 7.168-1.116 10.754-.568s7.021 1.827 10.093 3.756 5.716 4.468 7.767 7.459c2.052 2.992 3.468 6.373 4.16 9.934.693 3.56.648 7.225-.133 10.768-2.422 15.953-.265 39.328 19.563 67 19.843-27.688 21.984-51.047 19.562-67-.78-3.543-.826-7.208-.133-10.768.693-3.561 2.109-6.942 4.16-9.934 2.052-2.991 4.695-5.53 7.767-7.459s6.507-3.208 10.093-3.756 7.246-.355 10.754.568c3.508.922 6.79 2.555 9.642 4.797s5.213 5.045 6.938 8.236c1.726 3.191 2.778 6.702 3.092 10.316z" fill="#1e1e1e"></path>
    <path d="m350.213 155.738h103.709v297.928h-103.709z" fill="#1e1e1e"></path>
    <path d="m342.078 374.787h115.023v52.7973h-115.023z" fill="#1e1e1e"></path>
    <path d="m362.82 312.562h77.3103v37.7124h-77.3103z" fill="#fff"></path>
    <path d="m381.667 399.58c0 2.185-.663 4.281-1.842 5.827-1.179 1.545-2.777 2.413-4.445 2.413h-12.572c-1.668 0-3.267-.868-4.445-2.413-1.179-1.546-1.842-3.642-1.842-5.827 0-2.186.663-4.282 1.842-5.828 1.178-1.545 2.777-2.413 4.445-2.413h12.572c1.668 0 3.266.868 4.445 2.413 1.179 1.546 1.842 3.642 1.842 5.828zm56.576-8.241h-12.572c-1.667 0-3.266.868-4.445 2.413-1.179 1.546-1.841 3.642-1.841 5.828 0 2.185.662 4.281 1.841 5.827 1.179 1.545 2.778 2.413 4.445 2.413h12.572c1.668 0 3.267-.868 4.446-2.413 1.178-1.546 1.841-3.642 1.841-5.827 0-2.186-.663-4.282-1.841-5.828-1.179-1.545-2.778-2.413-4.446-2.413zm53.741-63.743c-1.179 1.892-2.664 3.417-4.348 4.465s-3.525 1.591-5.388 1.592h-25.146v32.963c5.278 5.189 9.176 12.423 11.143 20.678 1.967 8.254 1.903 17.111-.183 25.315-2.086 8.205-6.088 15.341-11.44 20.397-5.352 5.057-11.782 7.778-18.379 7.778h-75.435c-6.597 0-13.027-2.721-18.379-7.778-5.351-5.056-9.354-12.192-11.44-20.397-2.086-8.204-2.15-17.061-.183-25.315 1.967-8.255 5.865-15.489 11.143-20.678v-32.963h-25.146c-1.849-.004-3.674-.543-5.346-1.578-1.673-1.035-3.15-2.54-4.327-4.409-1.178-1.869-2.026-4.056-2.485-6.404s-.517-4.8-.171-7.181c2.016-13.062 7.411-24.809 15.274-33.256 7.862-8.447 17.709-13.074 27.874-13.099h1.289c-4.195-5.361-7.529-11.768-9.804-18.845-2.276-7.077-3.447-14.679-3.445-22.359 0-2.186.663-4.282 1.842-5.827 1.179-1.546 2.778-2.414 4.445-2.414s3.266.868 4.445 2.414c1.179 1.545 1.841 3.641 1.841 5.827 0 10.928 3.312 21.408 9.206 29.136 5.895 7.727 13.889 12.068 22.226 12.068h37.718c4.127 0 8.214-1.066 12.028-3.137 3.813-2.07 7.278-5.105 10.197-8.931 2.919-3.827 5.234-8.369 6.813-13.368 1.58-4.999 2.393-10.357 2.393-15.768 0-2.186.662-4.282 1.841-5.827 1.179-1.546 2.778-2.414 4.445-2.414 1.668 0 3.267.868 4.445 2.414 1.179 1.545 1.842 3.641 1.842 5.827.002 7.68-1.169 15.282-3.445 22.359-2.275 7.077-5.609 13.484-9.804 18.845h1.289c10.165.025 20.012 4.652 27.874 13.099 7.863 8.447 13.258 20.194 15.274 33.256.357 2.364.309 4.802-.139 7.139-.449 2.337-1.287 4.514-2.454 6.376zm-78.886 1.936c0 2.445.553 4.835 1.589 6.868s2.509 3.617 4.232 4.553c1.723.935 3.619 1.18 5.448.703s3.51-1.654 4.828-3.383c1.319-1.729 2.217-3.931 2.581-6.329s.177-4.883-.537-7.142c-.713-2.259-1.922-4.189-3.473-5.548-1.55-1.358-3.373-2.083-5.238-2.083-2.501 0-4.9 1.302-6.668 3.621-1.768 2.318-2.762 5.462-2.762 8.74zm-44.004 0c0 2.445.553 4.835 1.589 6.868s2.509 3.617 4.232 4.553c1.723.935 3.619 1.18 5.448.703s3.509-1.654 4.828-3.383 2.217-3.931 2.581-6.329.177-4.883-.537-7.142-1.922-4.189-3.473-5.548c-1.55-1.358-3.374-2.083-5.239-2.083-2.5 0-4.899 1.302-6.667 3.621-1.769 2.318-2.762 5.462-2.762 8.74zm-25.145-12.361v-8.241c-.012-8.918 2.195-17.597 6.286-24.722h-.629c-7.242.015-14.259 3.301-19.87 9.305-5.61 6.004-9.471 14.359-10.933 23.658zm113.153 82.409c0-6.557-1.987-12.846-5.523-17.482-3.537-4.636-8.334-7.241-13.336-7.241h-75.435c-5.002 0-9.799 2.605-13.336 7.241-3.536 4.636-5.523 10.925-5.523 17.482 0 6.556 1.987 12.845 5.523 17.481 3.537 4.636 8.334 7.241 13.336 7.241h75.435c5.002 0 9.799-2.605 13.336-7.241 3.536-4.636 5.523-10.925 5.523-17.481zm25.146-82.409c-1.46-9.3-5.321-17.656-10.932-23.66s-12.628-9.29-19.871-9.303h-.629c4.091 7.125 6.298 15.804 6.286 24.722v8.241z" fill="#fff"></path>
    <g fill="#1e1e1e">
      <ellipse cx="378.848" cy="329.532" rx="4.71405" ry="13.1993"></ellipse>
      <ellipse cx="422.217" cy="329.532" rx="4.71405" ry="13.1993"></ellipse>
    </g>
  </g>
</svg>
